<?xml version="1.0" encoding="utf-8" standalone="no"?>
<!DOCTYPE svg PUBLIC "-//W3C//DTD SVG 1.1//EN"
  "http://www.w3.org/Graphics/SVG/1.1/DTD/svg11.dtd">
<svg xmlns:xlink="http://www.w3.org/1999/xlink" width="460.8pt" height="460.8pt" viewBox="0 0 460.8 460.8" xmlns="http://www.w3.org/2000/svg" version="1.1">
 <metadata>
  <rdf:RDF xmlns:dc="http://purl.org/dc/elements/1.1/" xmlns:cc="http://creativecommons.org/ns#" xmlns:rdf="http://www.w3.org/1999/02/22-rdf-syntax-ns#">
   <cc:Work>
    <dc:type rdf:resource="http://purl.org/dc/dcmitype/StillImage"/>
    <dc:date>2026-03-20T19:15:56.175107</dc:date>
    <dc:format>image/svg+xml</dc:format>
    <dc:creator>
     <cc:Agent>
      <dc:title>Matplotlib v3.9.1, https://matplotlib.org/</dc:title>
     </cc:Agent>
    </dc:creator>
   </cc:Work>
  </rdf:RDF>
 </metadata>
 <defs>
  <style type="text/css">*{stroke-linejoin: round; stroke-linecap: butt}</style>
 </defs>
 <g id="figure_1">
  <g id="patch_1">
   <path d="M 0 460.8 
L 460.8 460.8 
L 460.8 0 
L 0 0 
z
" style="fill: #ffffff"/>
  </g>
  <g id="axes_1">
   <g id="patch_2">
    <path d="M 230.4 46.08 
C 205.878304 46.08 181.601353 50.973502 158.99451 60.473197 
C 136.387667 69.972892 115.902197 83.88915 98.740857 101.404913 
C 81.579516 118.920676 68.084871 139.686303 59.049226 162.48259 
C 50.013581 185.278876 45.617302 209.650775 46.118505 234.167348 
L 230.4 230.4 
C 230.4 230.4 230.4 230.4 230.4 230.4 
C 230.4 230.4 230.4 230.4 230.4 230.4 
C 230.4 230.4 230.4 230.4 230.4 230.4 
C 230.4 230.4 230.4 230.4 230.4 230.4 
z
" style="fill: #87cbc0"/>
   </g>
   <g id="patch_3">
    <path d="M 46.118505 234.167348 
C 46.888502 271.832087 59.187571 308.370456 81.350132 338.834309 
C 103.512693 369.298161 134.491008 392.247314 170.089889 404.573916 
C 205.68877 416.900517 244.225275 418.021826 280.480662 407.785991 
C 316.736049 397.550155 348.99634 376.441077 372.892738 347.317416 
L 230.4 230.4 
C 230.4 230.4 230.4 230.4 230.4 230.4 
C 230.4 230.4 230.4 230.4 230.4 230.4 
C 230.4 230.4 230.4 230.4 230.4 230.4 
C 230.4 230.4 230.4 230.4 230.4 230.4 
z
" style="fill: #97b6d5"/>
   </g>
   <g id="patch_4">
    <path d="M 372.892738 347.317416 
C 384.310921 333.401541 393.629223 317.887768 400.550486 301.270831 
C 407.471748 284.653893 411.921608 267.112324 413.75816 249.205522 
L 230.4 230.4 
C 230.4 230.4 230.4 230.4 230.4 230.4 
C 230.4 230.4 230.4 230.4 230.4 230.4 
z
" style="fill: #cae0b3"/>
   </g>
   <g id="patch_5">
    <path d="M 413.75816 249.205522 
C 416.389481 223.549536 413.606958 197.624605 405.590976 173.111394 
C 397.574994 148.598183 384.5026 126.038108 367.221253 106.893696 
L 230.4 230.4 
C 230.4 230.4 230.4 230.4 230.4 230.4 
C 230.4 230.4 230.4 230.4 230.4 230.4 
z
" style="fill: #e7d47e"/>
   </g>
   <g id="patch_6">
    <path d="M 367.221253 106.893696 
C 349.939906 87.749284 328.831293 72.443372 305.263846 61.968213 
C 281.6964 51.493054 256.190647 46.080011 230.400078 46.08 
L 230.4 230.4 
C 230.4 230.4 230.4 230.4 230.4 230.4 
C 230.4 230.4 230.4 230.4 230.4 230.4 
z
" style="fill: #ea7b7a"/>
   </g>
   <g id="patch_7">
    <path d="M 230.4 414.72 
C 279.282235 414.72 326.168962 395.298882 360.733922 360.733922 
C 395.298882 326.168962 414.72 279.282235 414.72 230.4 
C 414.72 181.517765 395.298882 134.631038 360.733922 100.066078 
C 326.168962 65.501118 279.282235 46.08 230.4 46.08 
C 181.517765 46.08 134.631038 65.501118 100.066078 100.066078 
C 65.501118 134.631038 46.08 181.517765 46.08 230.4 
C 46.08 279.282235 65.501118 326.168962 100.066078 360.733922 
C 134.631038 395.298882 181.517765 414.72 230.4 414.72 
L 230.4 414.72 
z
" clip-path="url(#p6dd8a86567)" style="fill: none; stroke: #333333; stroke-width: 0.6; stroke-linejoin: miter"/>
   </g>
   <g id="matplotlib.axis_1"/>
   <g id="matplotlib.axis_2"/>
   <g id="text_1">
    <!-- 25.3% -->
    <g transform="translate(116.158131 135.17547) scale(0.15 -0.15)">
     <defs>
      <path id="MicrosoftJhengHeiBold-32" d="M 3350 0 
L 341 0 
L 341 613 
L 1744 1994 
Q 2213 2453 2436 2787 
Q 2659 3122 2659 3516 
Q 2659 4319 1809 4319 
Q 1172 4319 584 3784 
L 584 4491 
Q 1175 4922 1941 4922 
Q 2606 4922 3001 4567 
Q 3397 4213 3397 3597 
Q 3397 3153 3147 2714 
Q 2897 2275 2275 1675 
L 1200 650 
L 1200 634 
L 3350 634 
L 3350 0 
z
" transform="scale(0.015625)"/>
      <path id="MicrosoftJhengHeiBold-35" d="M 553 822 
Q 1053 506 1578 506 
Q 2047 506 2340 762 
Q 2634 1019 2634 1456 
Q 2634 2363 1472 2363 
Q 1197 2363 700 2316 
L 700 4841 
L 3159 4841 
L 3159 4209 
L 1359 4209 
L 1359 2950 
Q 1631 2966 1769 2966 
Q 2513 2966 2947 2581 
Q 3381 2197 3381 1513 
Q 3381 784 2900 351 
Q 2419 -81 1616 -81 
Q 928 -81 553 122 
L 553 822 
z
" transform="scale(0.015625)"/>
      <path id="MicrosoftJhengHeiBold-2e" d="M 350 363 
Q 350 553 487 678 
Q 625 803 816 803 
Q 1003 803 1140 679 
Q 1278 556 1278 363 
Q 1278 181 1147 51 
Q 1016 -78 809 -78 
Q 619 -78 484 48 
Q 350 175 350 363 
z
" transform="scale(0.015625)"/>
      <path id="MicrosoftJhengHeiBold-33" d="M 463 884 
Q 959 506 1588 506 
Q 2053 506 2331 732 
Q 2609 959 2609 1347 
Q 2609 2200 1366 2200 
L 953 2200 
L 953 2791 
L 1341 2791 
Q 2450 2791 2450 3588 
Q 2450 4331 1603 4331 
Q 1103 4331 647 3994 
L 647 4650 
Q 1125 4922 1778 4922 
Q 2403 4922 2801 4605 
Q 3200 4288 3200 3750 
Q 3200 2797 2231 2534 
L 2231 2522 
Q 2744 2472 3053 2155 
Q 3363 1838 3363 1375 
Q 3363 700 2873 309 
Q 2384 -81 1600 -81 
Q 891 -81 463 172 
L 463 884 
z
" transform="scale(0.015625)"/>
      <path id="MicrosoftJhengHeiBold-25" d="M 281 3613 
Q 281 4216 604 4562 
Q 928 4909 1466 4909 
Q 1994 4909 2283 4584 
Q 2572 4259 2572 3691 
Q 2572 3113 2248 2758 
Q 1925 2403 1391 2403 
Q 888 2403 584 2734 
Q 281 3066 281 3613 
z
M 825 3644 
Q 825 3263 984 3059 
Q 1144 2856 1428 2856 
Q 2034 2856 2034 3672 
Q 2034 4463 1447 4463 
Q 1150 4463 987 4248 
Q 825 4034 825 3644 
z
M 4734 4841 
L 1616 -22 
L 1013 -22 
L 4131 4841 
L 4734 4841 
z
M 3209 1138 
Q 3209 1734 3534 2087 
Q 3859 2441 4394 2441 
Q 4922 2441 5211 2114 
Q 5500 1788 5500 1213 
Q 5500 638 5175 283 
Q 4850 -72 4322 -72 
Q 3813 -72 3511 265 
Q 3209 603 3209 1138 
z
M 3750 1166 
Q 3750 788 3911 584 
Q 4072 381 4356 381 
Q 4963 381 4963 1197 
Q 4963 1575 4805 1779 
Q 4647 1984 4372 1984 
Q 3750 1984 3750 1166 
z
" transform="scale(0.015625)"/>
     </defs>
     <use xlink:href="#MicrosoftJhengHeiBold-32"/>
     <use xlink:href="#MicrosoftJhengHeiBold-35" x="59.570312"/>
     <use xlink:href="#MicrosoftJhengHeiBold-2e" x="119.140625"/>
     <use xlink:href="#MicrosoftJhengHeiBold-33" x="144.580078"/>
     <use xlink:href="#MicrosoftJhengHeiBold-25" x="204.150391"/>
    </g>
    <!-- 清醒 -->
    <g transform="translate(123.2386 153.293127) scale(0.15 -0.15)">
     <defs>
      <path id="MicrosoftJhengHeiBold-6e05" d="M 1778 4306 
L 1331 3897 
Q 1034 4372 447 4891 
L 838 5275 
Q 1403 4834 1778 4306 
z
M 5997 2938 
L 1900 2938 
L 1900 3384 
L 3584 3384 
L 3584 3719 
L 2181 3719 
L 2181 4147 
L 3584 4147 
L 3584 4447 
L 2028 4447 
L 2028 4897 
L 3584 4897 
L 3584 5259 
L 4153 5259 
L 4153 4897 
L 5869 4897 
L 5869 4447 
L 4153 4447 
L 4153 4147 
L 5716 4147 
L 5716 3719 
L 4153 3719 
L 4153 3384 
L 5997 3384 
L 5997 2938 
z
M 1722 2822 
L 1375 2375 
Q 919 2831 409 3169 
L 738 3616 
Q 1328 3234 1722 2822 
z
M 5556 269 
Q 5556 -50 5368 -206 
Q 5181 -363 4134 -325 
L 3928 206 
Q 4184 188 4403 188 
Q 4863 188 4934 230 
Q 5006 272 5006 359 
L 5006 653 
L 2725 653 
Q 2544 50 2169 -353 
L 1697 0 
Q 1959 263 2106 613 
Q 2253 963 2253 1678 
L 2253 2631 
L 5556 2631 
L 5556 269 
z
M 5006 1850 
L 5006 2175 
L 2803 2175 
L 2803 1850 
L 5006 1850 
z
M 5006 1088 
L 5006 1416 
L 2797 1416 
Q 2806 1231 2784 1088 
L 5006 1088 
z
M 1813 1734 
Q 1450 569 916 -366 
L 409 -19 
Q 900 747 1269 1991 
L 1813 1734 
z
" transform="scale(0.015625)"/>
      <path id="MicrosoftJhengHeiBold-9192" d="M 5734 2981 
L 3194 2981 
L 3194 5184 
L 5734 5184 
L 5734 2981 
z
M 5191 4331 
L 5191 4678 
L 3744 4678 
L 3744 4331 
L 5191 4331 
z
M 5191 3469 
L 5191 3859 
L 3744 3859 
L 3744 3469 
L 5191 3469 
z
M 2913 4653 
L 2094 4653 
L 2094 3950 
L 2784 3950 
L 2784 -313 
L 2309 -313 
L 2309 -6 
L 1031 -6 
L 1031 -319 
L 544 -319 
L 544 3950 
L 1228 3950 
L 1228 4653 
L 409 4653 
L 409 5159 
L 2913 5159 
L 2913 4653 
z
M 1753 3950 
L 1753 4653 
L 1575 4653 
L 1575 3950 
L 1753 3950 
z
M 2309 2406 
L 2309 3450 
L 2094 3450 
L 2094 2484 
Q 2094 2406 2175 2406 
L 2309 2406 
z
M 1228 3450 
L 1031 3450 
L 1031 2009 
Q 1228 2419 1228 3450 
z
M 2309 506 
L 2309 1913 
L 2125 1913 
Q 1969 1913 1864 2020 
Q 1759 2128 1759 2297 
L 1759 3450 
L 1575 3450 
Q 1591 2284 1300 1697 
L 1031 1953 
L 1031 506 
L 2309 506 
z
M 2131 972 
L 1222 972 
L 1222 1434 
L 2131 1434 
L 2131 972 
z
M 5997 -206 
L 3009 -206 
L 3009 281 
L 4213 281 
L 4213 850 
L 3156 850 
L 3156 1331 
L 4213 1331 
L 4213 1900 
L 3597 1900 
Q 3509 1753 3328 1509 
L 2900 1831 
Q 3209 2197 3488 2869 
L 3956 2700 
Q 3909 2528 3847 2394 
L 4213 2394 
L 4213 2766 
L 4769 2766 
L 4769 2394 
L 5913 2394 
L 5913 1900 
L 4769 1900 
L 4769 1331 
L 5819 1331 
L 5819 850 
L 4769 850 
L 4769 281 
L 5997 281 
L 5997 -206 
z
" transform="scale(0.015625)"/>
     </defs>
     <use xlink:href="#MicrosoftJhengHeiBold-6e05"/>
     <use xlink:href="#MicrosoftJhengHeiBold-9192" x="100"/>
    </g>
   </g>
   <g id="text_2">
    <!-- 38.7% -->
    <g transform="translate(166.102453 347.393772) scale(0.15 -0.15)">
     <defs>
      <path id="MicrosoftJhengHeiBold-38" d="M 1338 2544 
Q 478 2928 478 3694 
Q 478 4247 906 4584 
Q 1334 4922 1966 4922 
Q 2556 4922 2957 4606 
Q 3359 4291 3359 3766 
Q 3359 2966 2453 2547 
L 2453 2534 
Q 3503 2159 3503 1253 
Q 3503 616 3043 267 
Q 2584 -81 1816 -81 
Q 1166 -81 741 269 
Q 316 619 316 1200 
Q 316 2109 1338 2531 
L 1338 2544 
z
M 2638 3691 
Q 2638 3994 2445 4170 
Q 2253 4347 1931 4347 
Q 1625 4347 1414 4159 
Q 1203 3972 1203 3694 
Q 1203 3125 1916 2834 
Q 2638 3134 2638 3691 
z
M 1875 2216 
Q 1034 1881 1034 1238 
Q 1034 900 1284 695 
Q 1534 491 1922 491 
Q 2300 491 2542 691 
Q 2784 891 2784 1228 
Q 2784 1894 1875 2216 
z
" transform="scale(0.015625)"/>
      <path id="MicrosoftJhengHeiBold-37" d="M 3509 4553 
L 1663 0 
L 897 0 
L 2678 4209 
L 303 4209 
L 303 4841 
L 3509 4841 
L 3509 4553 
z
" transform="scale(0.015625)"/>
     </defs>
     <use xlink:href="#MicrosoftJhengHeiBold-33"/>
     <use xlink:href="#MicrosoftJhengHeiBold-38" x="59.570312"/>
     <use xlink:href="#MicrosoftJhengHeiBold-2e" x="119.140625"/>
     <use xlink:href="#MicrosoftJhengHeiBold-37" x="144.580078"/>
     <use xlink:href="#MicrosoftJhengHeiBold-25" x="204.150391"/>
    </g>
    <!-- 快速眼动 -->
    <g transform="translate(158.182922 365.511428) scale(0.15 -0.15)">
     <defs>
      <path id="MicrosoftJhengHeiBold-5feb" d="M 2522 3144 
L 2175 2753 
Q 2019 3016 1778 3263 
L 1778 -300 
L 1216 -300 
L 1216 5259 
L 1778 5259 
L 1778 3988 
Q 2219 3578 2522 3144 
z
M 5991 2022 
L 3994 2022 
Q 3759 597 2328 -353 
L 1919 103 
Q 3197 872 3397 2022 
L 2069 2022 
L 2069 2578 
L 3481 2578 
Q 3516 3022 3525 3794 
L 2363 3794 
L 2363 4347 
L 3519 4347 
Q 3541 4838 3531 5253 
L 4097 5253 
Q 4106 4756 4097 4347 
L 5556 4347 
L 5556 2578 
L 5991 2578 
L 5991 2022 
z
M 4978 2578 
L 4978 3794 
L 4103 3794 
Q 4091 2988 4063 2578 
L 4978 2578 
z
M 1069 3897 
Q 1028 2978 813 2309 
L 378 2541 
Q 569 3100 616 4000 
L 1069 3897 
z
M 6047 25 
L 5594 -359 
Q 4941 481 4019 1228 
L 4422 1619 
Q 5400 878 6047 25 
z
" transform="scale(0.015625)"/>
      <path id="MicrosoftJhengHeiBold-901f" d="M 1953 4481 
L 1556 4072 
Q 1209 4475 544 4897 
L 922 5313 
Q 1494 4975 1953 4481 
z
M 6028 1069 
L 5741 616 
Q 5141 1100 4441 1522 
L 4441 494 
L 3884 494 
L 3884 1631 
Q 3247 988 2528 563 
L 2163 1013 
Q 3156 1538 3659 2163 
L 2547 2163 
L 2547 3769 
L 3884 3769 
L 3884 4191 
L 2344 4191 
L 2344 4697 
L 3884 4697 
L 3884 5241 
L 4441 5241 
L 4441 4697 
L 5997 4697 
L 5997 4191 
L 4441 4191 
L 4441 3769 
L 5784 3769 
L 5784 2163 
L 4441 2163 
L 4441 2094 
Q 5428 1550 6028 1069 
z
M 5234 2656 
L 5234 3303 
L 4441 3303 
L 4441 2656 
L 5234 2656 
z
M 3884 2656 
L 3884 3303 
L 3091 3303 
L 3091 2656 
L 3884 2656 
z
M 6053 306 
L 5888 -250 
Q 5494 -263 4966 -263 
Q 4256 -263 3482 -242 
Q 2709 -222 2265 -70 
Q 1822 81 1466 372 
Q 1175 -72 884 -397 
L 428 -44 
Q 1263 822 1491 1791 
L 531 1791 
L 531 2316 
Q 1044 2841 1409 3406 
L 434 3406 
L 434 3922 
L 2069 3922 
L 2069 3406 
Q 1756 2897 1241 2316 
L 2075 2316 
L 2075 1778 
Q 1975 1306 1734 831 
Q 2359 269 3359 269 
Q 4706 269 6053 306 
z
" transform="scale(0.015625)"/>
      <path id="MicrosoftJhengHeiBold-773c" d="M 5625 2472 
L 3372 2472 
L 3372 403 
Q 3700 484 4275 744 
L 4341 191 
Q 3528 -144 2822 -341 
L 2675 166 
Q 2809 253 2809 428 
L 2809 5113 
L 5625 5113 
L 5625 2472 
z
M 5056 4050 
L 5056 4594 
L 3372 4594 
L 3372 4050 
L 5056 4050 
z
M 5056 2994 
L 5056 3553 
L 3372 3553 
L 3372 2994 
L 5056 2994 
z
M 2303 103 
L 1759 103 
L 1759 409 
L 1153 409 
L 1153 -38 
L 594 -38 
L 594 4978 
L 2303 4978 
L 2303 103 
z
M 1759 3659 
L 1759 4441 
L 1153 4441 
L 1153 3659 
L 1759 3659 
z
M 1759 2338 
L 1759 3150 
L 1153 3150 
L 1153 2338 
L 1759 2338 
z
M 1759 934 
L 1759 1819 
L 1153 1819 
L 1153 934 
L 1759 934 
z
M 6069 63 
L 5691 -359 
Q 4319 400 3903 2163 
L 4447 2278 
Q 4525 1866 4716 1453 
Q 5181 1806 5522 2266 
L 5947 1900 
Q 5556 1400 4991 997 
Q 5369 488 6069 63 
z
" transform="scale(0.015625)"/>
      <path id="MicrosoftJhengHeiBold-52a8" d="M 5919 4050 
Q 5869 2597 5784 1423 
Q 5700 250 5626 53 
Q 5553 -144 5392 -248 
Q 5231 -353 4934 -353 
Q 4794 -353 4366 -341 
L 4159 206 
Q 4475 181 4713 181 
Q 4969 181 5033 222 
Q 5097 263 5128 358 
Q 5159 453 5234 1522 
Q 5309 2591 5344 3519 
L 4409 3519 
Q 4244 697 3231 -378 
L 2822 0 
Q 3744 1116 3866 3519 
L 3219 3519 
L 3219 4050 
L 3891 4050 
Q 3903 4294 3903 4631 
Q 3903 4856 3897 5228 
L 4441 5228 
Q 4447 5016 4447 4803 
Q 4447 4447 4428 4050 
L 5919 4050 
z
M 2938 4556 
L 647 4556 
L 647 5081 
L 2938 5081 
L 2938 4556 
z
M 3181 653 
L 2713 353 
Q 2678 459 2619 588 
Q 1928 309 609 -50 
L 447 434 
Q 1056 1500 1441 2894 
L 422 2894 
L 422 3438 
L 3169 3438 
L 3169 2894 
L 2016 2894 
Q 1666 1703 1191 678 
Q 1644 800 2400 1081 
Q 2253 1375 2022 1759 
L 2497 2028 
Q 2994 1213 3181 653 
z
" transform="scale(0.015625)"/>
     </defs>
     <use xlink:href="#MicrosoftJhengHeiBold-5feb"/>
     <use xlink:href="#MicrosoftJhengHeiBold-901f" x="100"/>
     <use xlink:href="#MicrosoftJhengHeiBold-773c" x="200"/>
     <use xlink:href="#MicrosoftJhengHeiBold-52a8" x="300"/>
    </g>
   </g>
   <g id="text_3">
    <!-- 9.3% -->
    <g transform="translate(331.893231 275.081613) scale(0.15 -0.15)">
     <defs>
      <path id="MicrosoftJhengHeiBold-39" d="M 566 744 
Q 969 506 1444 506 
Q 2078 506 2418 987 
Q 2759 1469 2759 2338 
Q 2750 2338 2744 2341 
Q 2428 1772 1700 1772 
Q 1084 1772 692 2200 
Q 300 2628 300 3272 
Q 300 3997 745 4459 
Q 1191 4922 1906 4922 
Q 2659 4922 3073 4340 
Q 3488 3759 3488 2691 
Q 3488 1391 2966 655 
Q 2444 -81 1472 -81 
Q 950 -81 566 88 
L 566 744 
z
M 1031 3353 
Q 1031 2903 1261 2636 
Q 1491 2369 1897 2369 
Q 2250 2369 2486 2612 
Q 2722 2856 2722 3209 
Q 2722 3675 2489 4003 
Q 2256 4331 1863 4331 
Q 1497 4331 1264 4047 
Q 1031 3763 1031 3353 
z
" transform="scale(0.015625)"/>
     </defs>
     <use xlink:href="#MicrosoftJhengHeiBold-39"/>
     <use xlink:href="#MicrosoftJhengHeiBold-2e" x="59.570312"/>
     <use xlink:href="#MicrosoftJhengHeiBold-33" x="85.009766"/>
     <use xlink:href="#MicrosoftJhengHeiBold-25" x="144.580078"/>
    </g>
    <!-- 入睡期(N1) -->
    <g transform="translate(311.092449 293.199269) scale(0.15 -0.15)">
     <defs>
      <path id="MicrosoftJhengHeiBold-5165" d="M 6041 84 
L 5594 -341 
Q 3766 1253 3263 3144 
Q 2625 959 788 -294 
L 372 153 
Q 1200 700 1801 1484 
Q 2403 2269 2718 3205 
Q 3034 4141 3034 4428 
L 3016 4556 
L 2241 4556 
L 2241 5125 
L 3553 5125 
Q 3638 3281 4281 2132 
Q 4925 984 6041 84 
z
" transform="scale(0.015625)"/>
      <path id="MicrosoftJhengHeiBold-7761" d="M 6028 3494 
L 4494 3494 
L 4494 1422 
L 5863 1422 
L 5863 884 
L 4494 884 
L 4494 275 
L 6022 275 
L 6022 -250 
L 2400 -250 
L 2400 275 
L 3950 275 
L 3950 884 
L 2638 884 
L 2638 1422 
L 3950 1422 
L 3950 3494 
L 2400 3494 
L 2400 4013 
L 3950 4013 
L 3950 4488 
Q 3328 4438 2725 4409 
L 2534 4941 
Q 4313 4963 5581 5294 
L 5881 4794 
Q 5231 4631 4494 4538 
L 4494 4013 
L 6028 4013 
L 6028 3494 
z
M 2203 91 
L 1672 91 
L 1672 372 
L 1141 372 
L 1141 -25 
L 594 -25 
L 594 4959 
L 2203 4959 
L 2203 91 
z
M 1672 3616 
L 1672 4422 
L 1141 4422 
L 1141 3616 
L 1672 3616 
z
M 1672 2247 
L 1672 3103 
L 1141 3103 
L 1141 2247 
L 1672 2247 
z
M 1672 897 
L 1672 1747 
L 1141 1747 
L 1141 897 
L 1672 897 
z
M 6022 2253 
L 5606 2253 
L 5606 1697 
L 5081 1697 
L 5081 2253 
L 4684 2253 
L 4684 2753 
L 5081 2753 
L 5081 3200 
L 5606 3200 
L 5606 2753 
L 6022 2753 
L 6022 2253 
z
M 3750 2253 
L 3384 2253 
L 3384 1697 
L 2828 1697 
L 2828 2253 
L 2388 2253 
L 2388 2753 
L 2828 2753 
L 2828 3200 
L 3384 3200 
L 3384 2753 
L 3750 2753 
L 3750 2253 
z
" transform="scale(0.015625)"/>
      <path id="MicrosoftJhengHeiBold-671f" d="M 3506 1259 
L 416 1259 
L 416 1766 
L 947 1766 
L 947 4109 
L 519 4109 
L 519 4616 
L 947 4616 
L 947 5275 
L 1497 5275 
L 1497 4616 
L 2463 4616 
L 2463 5275 
L 3022 5275 
L 3022 4616 
L 3469 4616 
L 3469 4109 
L 3022 4109 
L 3022 1766 
L 3506 1766 
L 3506 1259 
z
M 2463 3659 
L 2463 4109 
L 1497 4109 
L 1497 3659 
L 2463 3659 
z
M 2463 2725 
L 2463 3169 
L 1497 3169 
L 1497 2725 
L 2463 2725 
z
M 2463 1766 
L 2463 2234 
L 1497 2234 
L 1497 1766 
L 2463 1766 
z
M 5819 422 
Q 5819 -319 5125 -319 
Q 4950 -319 4672 -306 
L 4481 244 
Q 4709 234 4841 234 
Q 5131 234 5200 289 
Q 5269 344 5269 459 
L 5269 1594 
L 4256 1594 
Q 4178 444 3591 -391 
L 3097 -78 
Q 3750 759 3750 2444 
L 3750 5159 
L 5819 5159 
L 5819 422 
z
M 5269 3706 
L 5269 4616 
L 4306 4616 
L 4306 3706 
L 5269 3706 
z
M 5269 2144 
L 5269 3144 
L 4306 3144 
L 4306 2144 
L 5269 2144 
z
M 3181 319 
L 2753 -6 
Q 2466 459 2131 813 
L 2553 1125 
Q 2866 822 3181 319 
z
M 1863 844 
Q 1384 116 825 -366 
L 391 13 
Q 938 453 1388 1113 
L 1863 844 
z
" transform="scale(0.015625)"/>
      <path id="MicrosoftJhengHeiBold-28" d="M 1553 -1100 
Q 494 97 494 1850 
Q 494 3581 1553 4841 
L 2181 4841 
Q 1138 3534 1138 1853 
Q 1138 181 2181 -1100 
L 1553 -1100 
z
" transform="scale(0.015625)"/>
      <path id="MicrosoftJhengHeiBold-4e" d="M 4666 0 
L 3828 0 
L 1513 3569 
Q 1384 3766 1325 3909 
L 1306 3909 
Q 1334 3722 1334 3203 
L 1334 0 
L 606 0 
L 606 4841 
L 1494 4841 
L 3741 1341 
Q 3900 1091 3953 994 
L 3969 994 
Q 3934 1219 3934 1688 
L 3934 4841 
L 4666 4841 
L 4666 0 
z
" transform="scale(0.015625)"/>
      <path id="MicrosoftJhengHeiBold-31" d="M 3438 0 
L 588 0 
L 588 613 
L 1647 613 
L 1647 4109 
L 559 3816 
L 559 4459 
L 2381 4938 
L 2381 613 
L 3438 613 
L 3438 0 
z
" transform="scale(0.015625)"/>
      <path id="MicrosoftJhengHeiBold-29" d="M 72 -1100 
Q 1119 175 1119 1853 
Q 1119 3528 69 4841 
L 700 4841 
Q 1766 3578 1766 1850 
Q 1766 100 697 -1100 
L 72 -1100 
z
" transform="scale(0.015625)"/>
     </defs>
     <use xlink:href="#MicrosoftJhengHeiBold-5165"/>
     <use xlink:href="#MicrosoftJhengHeiBold-7761" x="100"/>
     <use xlink:href="#MicrosoftJhengHeiBold-671f" x="200"/>
     <use xlink:href="#MicrosoftJhengHeiBold-28" x="300"/>
     <use xlink:href="#MicrosoftJhengHeiBold-4e" x="335.107422"/>
     <use xlink:href="#MicrosoftJhengHeiBold-31" x="417.480469"/>
     <use xlink:href="#MicrosoftJhengHeiBold-29" x="477.050781"/>
    </g>
   </g>
   <g id="text_4">
    <!-- 13.3% -->
    <g transform="translate(330.953214 185.370007) scale(0.15 -0.15)">
     <use xlink:href="#MicrosoftJhengHeiBold-31"/>
     <use xlink:href="#MicrosoftJhengHeiBold-33" x="59.570312"/>
     <use xlink:href="#MicrosoftJhengHeiBold-2e" x="119.140625"/>
     <use xlink:href="#MicrosoftJhengHeiBold-33" x="144.580078"/>
     <use xlink:href="#MicrosoftJhengHeiBold-25" x="204.150391"/>
    </g>
    <!-- 浅睡期(N2) -->
    <g transform="translate(314.620792 203.487663) scale(0.15 -0.15)">
     <defs>
      <path id="MicrosoftJhengHeiBold-6d45" d="M 2047 4416 
L 1656 3969 
Q 1294 4388 575 4897 
L 966 5331 
Q 1516 4969 2047 4416 
z
M 6069 653 
Q 5972 72 5783 -150 
Q 5594 -372 5281 -372 
Q 4688 -372 4153 434 
Q 3213 -59 1759 -325 
L 1491 147 
Q 2922 378 3884 872 
Q 3716 1216 3572 1759 
L 1991 1459 
L 1919 1947 
L 3456 2234 
Q 3413 2528 3391 2753 
L 2228 2566 
L 2144 3047 
L 3347 3250 
Q 3334 3388 3316 3725 
L 2053 3525 
L 1966 4006 
L 3272 4225 
L 3278 4225 
L 3238 5241 
L 3781 5228 
L 3816 4306 
L 5697 4622 
L 5772 4128 
L 3847 3822 
Q 3847 3631 3884 3328 
L 5522 3609 
L 5606 3122 
L 3928 2847 
Q 3950 2631 4006 2344 
L 5913 2706 
L 5991 2216 
L 4128 1863 
Q 4163 1578 4366 1178 
Q 4706 1406 5197 1941 
L 5684 1697 
Q 5116 1059 4622 722 
Q 5006 188 5259 188 
Q 5375 188 5447 338 
Q 5519 488 5569 909 
L 6069 653 
z
M 5125 4909 
L 4806 4519 
Q 4300 4747 3981 4831 
L 4269 5234 
Q 4728 5113 5125 4909 
z
M 1888 2859 
L 1522 2394 
Q 1063 2872 378 3328 
L 756 3788 
Q 1481 3294 1888 2859 
z
M 1838 1697 
Q 1438 541 897 -331 
L 441 50 
Q 1006 988 1363 2022 
L 1838 1697 
z
" transform="scale(0.015625)"/>
     </defs>
     <use xlink:href="#MicrosoftJhengHeiBold-6d45"/>
     <use xlink:href="#MicrosoftJhengHeiBold-7761" x="100"/>
     <use xlink:href="#MicrosoftJhengHeiBold-671f" x="200"/>
     <use xlink:href="#MicrosoftJhengHeiBold-28" x="300"/>
     <use xlink:href="#MicrosoftJhengHeiBold-4e" x="335.107422"/>
     <use xlink:href="#MicrosoftJhengHeiBold-32" x="417.480469"/>
     <use xlink:href="#MicrosoftJhengHeiBold-29" x="477.050781"/>
    </g>
   </g>
   <g id="text_5">
    <!-- 13.3% -->
    <g transform="translate(260.724224 107.56978) scale(0.15 -0.15)">
     <use xlink:href="#MicrosoftJhengHeiBold-31"/>
     <use xlink:href="#MicrosoftJhengHeiBold-33" x="59.570312"/>
     <use xlink:href="#MicrosoftJhengHeiBold-2e" x="119.140625"/>
     <use xlink:href="#MicrosoftJhengHeiBold-33" x="144.580078"/>
     <use xlink:href="#MicrosoftJhengHeiBold-25" x="204.150391"/>
    </g>
    <!-- 深睡期(N3) -->
    <g transform="translate(244.391802 125.687437) scale(0.15 -0.15)">
     <defs>
      <path id="MicrosoftJhengHeiBold-6df1" d="M 1778 4378 
L 1369 3944 
Q 988 4444 506 4838 
L 884 5288 
Q 1466 4800 1778 4378 
z
M 5869 3975 
L 5313 3975 
L 5313 4622 
L 2484 4622 
L 2484 3969 
L 1919 3969 
L 1919 5153 
L 5869 5153 
L 5869 3975 
z
M 5831 2906 
L 4744 2906 
Q 4563 2906 4428 3029 
Q 4294 3153 4294 3334 
L 4294 4372 
L 4838 4372 
L 4838 3519 
Q 4838 3488 4872 3456 
Q 4906 3425 4934 3425 
L 5831 3425 
L 5831 2906 
z
M 3628 4359 
Q 3678 3009 2272 2681 
L 1894 3144 
Q 2584 3291 2850 3572 
Q 3116 3853 3078 4372 
L 3628 4359 
z
M 1753 2869 
L 1381 2413 
Q 975 2813 422 3156 
L 769 3622 
Q 1319 3291 1753 2869 
z
M 6041 422 
L 5691 -13 
Q 4688 666 4178 1491 
L 4178 -347 
L 3616 -347 
L 3616 1484 
Q 2909 572 2041 -13 
L 1672 422 
Q 2825 1138 3297 1941 
L 1831 1941 
L 1831 2484 
L 3616 2484 
L 3616 2975 
L 4178 2975 
L 4178 2484 
L 5972 2484 
L 5972 1941 
L 4519 1941 
Q 4925 1175 6041 422 
z
M 1766 1691 
Q 1438 491 916 -378 
L 422 -25 
Q 903 753 1253 1984 
L 1766 1691 
z
" transform="scale(0.015625)"/>
     </defs>
     <use xlink:href="#MicrosoftJhengHeiBold-6df1"/>
     <use xlink:href="#MicrosoftJhengHeiBold-7761" x="100"/>
     <use xlink:href="#MicrosoftJhengHeiBold-671f" x="200"/>
     <use xlink:href="#MicrosoftJhengHeiBold-28" x="300"/>
     <use xlink:href="#MicrosoftJhengHeiBold-4e" x="335.107422"/>
     <use xlink:href="#MicrosoftJhengHeiBold-33" x="417.480469"/>
     <use xlink:href="#MicrosoftJhengHeiBold-29" x="477.050781"/>
    </g>
   </g>
  </g>
 </g>
 <defs>
  <clipPath id="p6dd8a86567">
   <rect x="0" y="0" width="460.8" height="460.8"/>
  </clipPath>
 </defs>
</svg>
